<svg width="15" height="17" viewBox="0 0 15 17" fill="none" xmlns="http://www.w3.org/2000/svg">
<path d="M3.66667 0H1.33333C0.979711 0 0.640573 0.1475 0.390524 0.41005C0.140476 0.672601 0 1.0287 0 1.4V5.6C0 5.78385 0.0344877 5.9659 0.101494 6.13576C0.1685 6.30561 0.266713 6.45995 0.390524 6.58995C0.514336 6.71995 0.661321 6.82307 0.823089 6.89343C0.984856 6.96379 1.15824 7 1.33333 7H3.66667C3.84176 7 4.01514 6.96379 4.17691 6.89343C4.33868 6.82307 4.48566 6.71995 4.60948 6.58995C4.73329 6.45995 4.8315 6.30561 4.89851 6.13576C4.96551 5.9659 5 5.78385 5 5.6V1.4C5 1.0287 4.85952 0.672601 4.60948 0.41005C4.35943 0.1475 4.02029 0 3.66667 0Z" fill="#CECECE"/>
<path d="M4.125 11.3333H1.5C1.10218 11.3333 0.720645 11.4925 0.43934 11.7759C0.158035 12.0593 0 12.4437 0 12.8444V15.4889C0 15.8897 0.158035 16.274 0.43934 16.5574C0.720645 16.8408 1.10218 17 1.5 17H4.125C4.52282 17 4.90436 16.8408 5.18566 16.5574C5.46697 16.274 5.625 15.8897 5.625 15.4889V12.8444C5.625 12.4437 5.46697 12.0593 5.18566 11.7759C4.90436 11.4925 4.52282 11.3333 4.125 11.3333ZM13.5 0H10.875C10.4772 0 10.0956 0.159206 9.81434 0.442594C9.53304 0.725982 9.375 1.11034 9.375 1.51111V4.15556C9.375 4.55633 9.53304 4.94068 9.81434 5.22407C10.0956 5.50746 10.4772 5.66667 10.875 5.66667H13.5C13.8978 5.66667 14.2794 5.50746 14.5607 5.22407C14.842 4.94068 15 4.55633 15 4.15556V1.51111C15 1.11034 14.842 0.725982 14.5607 0.442594C14.2794 0.159206 13.8978 0 13.5 0Z" fill="#CECECE"/>
<path d="M13.2126 9.54492H10.8792C10.5256 9.54492 10.1865 9.69242 9.93642 9.95497C9.68637 10.2175 9.5459 10.5736 9.5459 10.9449V15.1449C9.5459 15.5162 9.68637 15.8723 9.93642 16.1349C10.1865 16.3974 10.5256 16.5449 10.8792 16.5449H13.2126C13.5662 16.5449 13.9053 16.3974 14.1554 16.1349C14.4054 15.8723 14.5459 15.5162 14.5459 15.1449V10.9449C14.5459 10.5736 14.4054 10.2175 14.1554 9.95497C13.9053 9.69242 13.5662 9.54492 13.2126 9.54492Z" fill="#CECECE"/>
</svg>
