<svg width="29" height="29" viewBox="0 0 29 29" fill="none" xmlns="http://www.w3.org/2000/svg">
<path d="M0 14.5V12.702C0 10.6913 0.705667 8.98033 2.117 7.569C3.52833 6.15767 5.23933 5.452 7.25 5.452C7.86867 5.452 8.526 5.55833 9.222 5.771C9.57 4.10833 10.411 2.73567 11.745 1.653C13.079 0.570333 14.6063 0.0193333 16.327 0C18.3183 0 20.0197 0.715333 21.431 2.146C22.8423 3.57667 23.5577 5.278 23.577 7.25C23.577 7.79133 23.4803 8.41 23.287 9.106C23.4223 9.08667 23.519 9.077 23.577 9.077C25.0657 9.077 26.3417 9.60867 27.405 10.672C28.4683 11.7353 29 13.0113 29 14.5V16.327C29 17.835 28.4683 19.111 27.405 20.155C26.3417 21.199 25.0657 21.7307 23.577 21.75H23.229C23.403 21.2667 23.5093 20.8317 23.548 20.445C23.606 19.6523 23.5093 18.879 23.258 18.125C23.0067 17.371 22.5813 16.704 21.982 16.124L18.357 12.499C17.2937 11.4163 16.008 10.875 14.5 10.875C12.992 10.875 11.716 11.4067 10.672 12.47L7.047 16.095C6.467 16.675 6.04167 17.3517 5.771 18.125C5.50033 18.8983 5.40367 19.6813 5.481 20.474C5.50033 20.822 5.57767 21.199 5.713 21.605C4.06967 21.2377 2.70667 20.3967 1.624 19.082C0.541333 17.7673 0 16.24 0 14.5ZM9.077 20.126C9.019 19.546 9.193 19.0627 9.599 18.676L13.224 15.051C13.5913 14.6837 14.0167 14.5 14.5 14.5C15.0027 14.5 15.428 14.6837 15.776 15.051L19.401 18.676C19.807 19.0627 19.9907 19.546 19.952 20.126C19.9327 20.3 19.8843 20.474 19.807 20.648C19.6717 20.9767 19.4493 21.2473 19.14 21.46C18.8307 21.6727 18.4923 21.7693 18.125 21.75H16.327V27.202C16.327 27.7047 16.1433 28.13 15.776 28.478C15.4087 28.826 14.9833 29 14.5 29C14.0167 29 13.5913 28.826 13.224 28.478C12.8567 28.13 12.6827 27.7047 12.702 27.202V21.75H10.875C10.5077 21.75 10.179 21.6533 9.889 21.46C9.599 21.2667 9.367 20.996 9.193 20.648C9.135 20.474 9.09633 20.3 9.077 20.126Z" fill="#525252"/>
</svg>
