<svg xmlns="http://www.w3.org/2000/svg" width="41" height="41" viewBox="0 0 41 41" fill="none">
  <path d="M33.4311 25.7996L33.4312 25.7996C34.7587 24.4711 33.8178 22.2007 31.9397 22.2007L15.2949 22.2012C14.6691 22.2012 14.1719 21.7072 14.1719 21.1101C14.1719 20.513 14.6691 20.0189 15.2949 20.0189L31.8252 20.0175C33.7141 20.0174 34.66 17.7335 33.3242 16.3979C32.8817 15.9553 32.8794 15.2543 33.3015 14.8321C33.7236 14.4099 34.4244 14.4122 34.8669 14.8547L40.4143 20.4033C40.8569 20.8459 40.8591 21.5469 40.437 21.9691L35.0192 27.3881C34.5971 27.8103 33.8963 27.808 33.4538 27.3654C33.0113 26.9228 33.009 26.2218 33.4311 25.7996ZM20.9863 0.25C27.3584 0.25 33.2561 3.07582 37.1668 7.83447C37.5516 8.30271 37.4763 8.98654 36.9945 9.3644C36.5092 9.74496 35.7995 9.66788 35.4118 9.19612C31.9215 4.94902 26.6659 2.43224 20.9863 2.43224C10.7799 2.43224 2.49587 10.516 2.49587 20.5C2.49587 30.484 10.7799 38.5678 20.9863 38.5678C26.7499 38.5678 32.075 35.9754 35.5603 31.6208C35.9416 31.1444 36.6502 31.0582 37.1406 31.4328C37.6275 31.8047 37.7116 32.4875 37.3331 32.9604C33.4281 37.8393 27.4528 40.75 20.9863 40.75C9.52838 40.75 0.25 31.6783 0.25 20.5C0.25 9.32173 9.52838 0.25 20.9863 0.25Z" fill="url(#paint0_linear_1_30886)" stroke="#F43755" stroke-width="0.5"/>
  <defs>
    <linearGradient id="paint0_linear_1_30886" x1="15.8365" y1="-37.8462" x2="32.2807" y2="23.1854" gradientUnits="userSpaceOnUse">
      <stop stop-color="#FF9AAB"/>
      <stop offset="1" stop-color="#F53756"/>
    </linearGradient>
  </defs>
</svg>